<svg width="10" height="15" viewBox="0 0 10 15" fill="none" xmlns="http://www.w3.org/2000/svg">
<path opacity="1" d="M8.89132 2.66038L3.88487 7.66683L8.89132 12.6759C9.10271 12.9227 9.21317 13.2402 9.20063 13.565C9.18808 13.8897 9.05346 14.1978 8.82366 14.4276C8.59386 14.6574 8.28581 14.792 7.96107 14.8045C7.63632 14.8171 7.31881 14.7066 7.07197 14.4952L1.14939 8.56876C0.909063 8.327 0.77417 7.99997 0.77417 7.65908C0.77417 7.3182 0.909063 6.99117 1.14939 6.74941L7.07197 0.826827C7.31372 0.586503 7.64076 0.451612 7.98164 0.451612C8.32253 0.451612 8.64956 0.586503 8.89132 0.826827C9.13068 1.07196 9.26467 1.40099 9.26467 1.7436C9.26467 2.08621 9.13068 2.41524 8.89132 2.66038Z" fill="#555E77"/>
</svg>
