<svg width="9" height="15" viewBox="0 0 9 15" fill="none" xmlns="http://www.w3.org/2000/svg">
<path opacity="0.4" d="M0.818272 12.3396L5.82472 7.33314L0.818273 2.32411C0.606885 2.07727 0.496425 1.75975 0.508968 1.43501C0.521512 1.11027 0.656135 0.802215 0.885934 0.572415C1.11573 0.342616 1.42378 0.207994 1.74853 0.19545C2.07327 0.182907 2.39079 0.293366 2.63763 0.504755L8.56021 6.43121C8.80053 6.67297 8.93542 7 8.93542 7.34089C8.93542 7.68177 8.80053 8.0088 8.56021 8.25056L2.63763 14.1731C2.39587 14.4135 2.06883 14.5484 1.72795 14.5484C1.38706 14.5484 1.06003 14.4135 0.818272 14.1731C0.578915 13.928 0.444921 13.599 0.444921 13.2564C0.444921 12.9138 0.578915 12.5847 0.818272 12.3396Z" fill="#555E77"/>
</svg>
